<?xml version="1.0" encoding="UTF-8"?>
<svg xmlns="http://www.w3.org/2000/svg" viewBox="0 0 31.742 32.45">
  <path d="m.457,17.098c-.619-.621-.609-1.25.028-1.886C5.565,10.141,10.645,5.071,15.726,0h.188c.694.67,10.969,10.879,15.411,15.314.566.565.556,1.141-.029,1.727-3.504,3.514-14.035,14.345-14.948,15.205-.378.286-.763.271-1.094-.047-1.448-1.392-11.319-11.606-14.797-15.101Z" style="fill: #f47901"/>
  <path d="m27.928,13.146c.255.246.509.492.764.738.254.745.855,1.146,1.494,1.511.824.477.705.899.066,1.529-4.735,4.669-9.434,9.374-14.144,14.068-.607-.086-1.001-.305-.631-1.005.419-.214.783-.497,1.117-.834,2.356-2.373,4.729-4.73,7.084-7.103,1.755-1.724,3.46-3.499,5.234-5.202.586-.562.493-.918-.037-1.436-.544-.532-1.253-.951-1.47-1.765.043-.304.125-.568.523-.499v-.002Z" style="fill: #f7d8ab"/>
  <path d="m7.448,9.54c.32-.34.618-.705.963-1.017,1.713-1.545,3.152-3.344,4.686-5.054.734-.819,1.682-1.357,2.469-2.095.446-.419.605.08.8.274,2.298,2.289,4.724,4.451,6.869,6.893.225.257.494.475.743.712.183.467-.101.577-.472.622-.701-.404-1.304-.933-1.882-1.493-1.709-1.74-3.463-3.436-5.157-5.19-.486-.503-.817-.523-1.293-.004-.367.4-.676.923-1.301,1.007-.135-.043-.232-.13-.296-.255-.107-.658.611-.699.8-1.071-.736.502-1.217,1.329-1.919,1.938-.371.322-.436.728-.349,1.183-.005.091-.025.179-.059.263-1.201,1.349-2.455,2.644-3.877,3.765-.148.116-.296.23-.5.223-.413-.126-.357-.401-.223-.7h-.002Z" style="fill: #ebbd7b"/>
  <path d="m15.551,30.049c-.293.596.269.688.556.942-.201.43-.405.234-.625.011-2.608-2.638-5.218-5.274-7.827-7.91-.084-.342.241-.378.399-.541.134-.097.25-.223.423-.255.686.743,1.361,1.495,2.101,2.186.97.959,1.882,1.977,2.933,2.852.248.321.408.718.788.927.48.488,1.094.861,1.345,1.548-.005.09-.037.17-.093.24Z" style="fill: #f5b557"/>
  <path d="m4.65,20.28c-1.036-1.291-2.275-2.385-3.443-3.547-.41-.407-.451-.657.001-1.031.479-.396.909-.852,1.36-1.281.232.095.448.213.619.403.055.204-.05.357-.161.509-.45.617-.4,1.201.149,1.752.809.809,1.607,1.628,2.449,2.404.031.083.033.166.002.25-.295.234-.65.362-.976.543v-.002Z" style="fill: #ebb361"/>
  <path d="m3.15,14.835c-.303.015-.559-.036-.583-.415,1.578-1.676,3.196-3.312,4.881-4.881.031.256-.026.566.369.597.142.556-.363.738-.626,1.045-.345.402-.744.758-1.114,1.139-.705.682-1.382,1.394-2.091,2.072-.23.219-.419.559-.835.442h-.001Z" style="fill: #ebb96f"/>
  <path d="m23.45,9.76c.321-.019.506-.179.527-.509,1.422,1.191,2.678,2.55,3.95,3.894-.243.102-.365.292-.395.549-.069.063-.148.08-.236.053-.639-.348-.958-1.102-1.689-1.335-.168-.061-.319-.142-.39-.32-.13-.604-.628-.896-1.047-1.265-.327-.288-.836-.472-.72-1.066h0Z" style="fill: #ebb96f"/>
  <path d="m4.65,20.28c.095-.55.532-.533.939-.565,1.049.596,1.745,1.571,2.565,2.41.144.148.23.378.063.596-.187.124-.375.247-.562.371-1.216-.708-2-1.878-3.005-2.812Z" style="fill: #f6d6a9"/>
  <path d="m30.185,15.394c-.823-.182-1.568-.441-1.494-1.511.498.504.996,1.007,1.494,1.511Z" style="fill: #e9b25f"/>
  <path d="m25.29,12.051c.123.051.246.102.369.153.222.889.842,1.328,1.697,1.501.059,0,.119-.004.178-.011.646.677,1.28,1.368,1.945,2.027.314.311.328.537.005.851-1.903,1.855-3.792,3.723-5.686,5.586-.157.102-.306.217-.461.32-.797.531-1.033.51-1.648-.237-1.346-1.634-3.106-2.426-5.173-2.698-.824-.108-1.523.183-2.258.41-.253-.438-.373-.928-.767-1.319-.399-.396-.014-1.179.551-1.277,1.06-.185,1.459-.804,1.197-1.858-.007-.027.009-.06.014-.091.331-.621.756-.793,1.454-.489.743.324,1.34-.191,1.246-1.024-.046-.41-.035-.74.368-.952.379-.199.682-.116,1.017.153.876.701,1.388.481,1.648-.669.565-.786,1.012-.82,1.601-.124.665.786,1.125.791,1.788.002.254-.302.489-.599.914-.256v.002Z" style="fill: #f3cc91"/>
  <path d="m14.205,19.899c1.471-1.178,3.018-.579,4.48-.071,1.325.46,2.536,1.202,3.311,2.464.242.393.541.447.943.215.264-.153.57-.234.858-.347-2.521,2.552-5.043,5.103-7.562,7.657-.194.197-.427.24-.684.234-.005-.058-.007-.116-.007-.173.095-1.123-.22-1.486-1.32-1.52-.575-.052-.651-.501-.745-.936.013-.163.106-.286.193-.417.516-.779.324-1.349-.568-1.594-.385-.106-.726-.2-.77-.672-.039-.411.107-.695.466-.937.874-.591.852-1.214-.024-1.751-.134-.082-.264-.165-.352-.301-.24-.706-.008-1.186.727-1.31.429-.073.641-.487,1.055-.539v-.002Z" style="fill: #f9d39a"/>
  <path d="m25.29,12.051c-.335-.053-.653-.035-.723.377-.107.633-.494.745-1.07.732-.552-.012-.981-.058-1.089-.716-.042-.255-.215-.43-.527-.424-.392.008-.674.119-.704.563-.355.253-.719.088-1.072.006-.965-.226-1.924-.47-2.921-.518-.488-.023-.909-.196-1.121-.688-.134-.353-.425-.538-.759-.628-1.129-.306-.941-1.207-.965-2.035-.025-.861.503-1.199,1.22-1.394.24-.065.477-.135.728-.138,1.843.245,3.731.259,5.464,1.069.555.515,1.225.898,1.7,1.503.373.683,1.125.98,1.588,1.566.157.198.645.322.251.724h0Z" style="fill: #e19119"/>
  <path d="m16.287,7.322c-.082.043-.16.097-.247.127-1.439.503-1.713.999-1.44,2.471.095.514.532.433.834.586.352.179.918.1.849.751.053.812-.231,1.297-1.14,1.214-.772-.071-.742.726-1.129,1.072-.728-.267-1.431-.266-2.12.147-.168.101-.413.19-.573-.073-.036-.758.397-1.4.528-2.12.109-.602.287-1.191.229-1.813.138-1.169-.253-2.322-.104-3.491.002-.065.003-.13.005-.196.411-.813,1.213-1.302,1.694-2.056l.184.207c.218.152.316.386.377.624.167.653.542.957,1.243,1.017.859.074,1.079.567.811,1.534h-.001Z" style="fill: #efc78b"/>
  <path d="m16.287,7.322c-.05-.891-.265-1.587-1.415-1.352-.555.113-.663-.345-.763-.74-.091-.359-.301-.692-.253-1.083.537-.516,1.08-1.025,1.608-1.55.22-.218.387-.367.677-.065,1.848,1.929,3.835,3.722,5.608,5.725-1.821-.312-3.642-.624-5.462-.936h0Z" style="fill: #db8910"/>
  <path d="m11.973,6.191c.436,1.162.415,2.368.347,3.579-.179.467-.514.77-.991.905-1.563.44-3.019,1.115-4.401,1.961-.132.081-.274.153-.425.184-.548.113-.805-.037-.547-.63.533-.763,1.37-1.251,1.86-2.053,1.385-1.315,2.771-2.63,4.156-3.945h.001Z" style="fill: #df8e16"/>
  <path d="m13.673,3.939c-.151,1.026-1.056,1.432-1.694,2.056-.226-.383-.292-.748.068-1.103.778-.767,1.545-1.545,2.321-2.313.121-.12.253-.343.455-.153.237.222.038.368-.132.525-.347.321-.964.366-1.017.988h0Z" style="fill: #f4ddbb"/>
  <path d="m11.421,13.709c.412-.19.827-.373,1.234-.573.529-.261.93-.16,1.194.384-.054.66.12,1.178.809,1.432.195.072.34.262.421.474-.166,1.265-.506,1.558-1.661,1.279-.636-.154-.897.189-1.21.608-.364.487-.621.942-.124,1.488.412.454.36.87-.077,1.298-.424.416-.866.668-1.384.227-.63-.538-1.109-.216-1.656.152-.517.348-.726.734-.489,1.333.068.172.087.366-.055.529-.021.153-.043.305-.206.381-.215-.8-.973-1.145-1.452-1.725-.368-.447-.783-.855-1.176-1.281.003-.056.007-.112.012-.167.9-.903,2.117-1.381,3.014-2.308.87-.899,1.668-1.833,2.256-2.94.129-.243.234-.517.549-.591h.001Z" style="fill: #f4cc92"/>
  <path d="m8.423,22.34c-.445-1.484-.25-1.889,1.202-2.622.472-.238.686.159.956.355.452.328.765.429,1.249-.043.512-.499.332-.794-.017-1.217-.284-.344-.676-.741-.116-1.181.55-.433.528-1.666,1.766-1.156.969.399,1.031.304,1.493-1.07.133-.108.267-.108.401-.004.032.574,1.007.948.281,1.713-.406.428-.676.881-1.337.489-.325-.193-.503-.014-.651.275-.156.303-.267.586.127.777.568.276.556.736.426,1.243-.188.494-.394.852-1.076.796-.776-.063-.545.621-.586,1.07.144.165.154.378.039.522-.654.818-1.186,1.749-2.114,2.318-.775-.67-1.587-1.307-2.046-2.264h.003Z" style="fill: #eea02c"/>
  <path d="m10.469,24.604c.532-.703,1.026-1.435,1.697-2.023.233-.204.344-.501.378-.816.887.089,1.266.531,1.138,1.458-.056.402-.165.628-.554.712-.409.088-.643.284-.59.768.057.517.409.488.741.455.789-.079.738.574.943,1.02.361.788-.42.875-.743,1.243-1.249-.676-2.056-1.824-3.01-2.816h0Z" style="fill: #f6a837"/>
  <path d="m14.225,28.356c.51-.443.916-.338,1.256.222.26.427.785.828.064,1.298-.44-.506-.88-1.013-1.319-1.519h-.001Z" style="fill: #f8ac3d"/>
  <path d="m11.421,13.709c-1.258,2.627-3.153,4.618-5.82,5.839-.899-.314-1.328-1.176-2.018-1.734-.096-.078-.177-.174-.265-.262-.871-.869-.928-1.775-.169-2.717.936-.882,1.871-1.764,2.807-2.646-.031.646.301.575.687.332,1.114-.699,2.287-1.28,3.515-1.741.75-.281,1.589-.358,2.162-1.012.059,1.395-.487,2.652-.9,3.94h.001Z" style="fill: #e4931d"/>
  <path d="m27.356,13.705c-1.242.128-1.628-.214-1.697-1.501.784.253,1.176.95,1.697,1.501Z" style="fill: #e19119"/>
  <path d="m15.359,15.401c-.134.001-.267.002-.401.004-.203-.137-.39-.32-.613-.402-.805-.294-.888-.803-.496-1.483.264-.186.207-.504.278-.757.122-.432.353-.638.79-.552.796.158,1.263-.132,1.367-.954.083.473.453.57.831.564,1.408-.022,2.715.469,4.061.762.107.541-.075.893-.633,1.043-.479.129-.955.35-1.28-.26-.188-.353-.413-.452-.827-.259-.472.22-.346.528-.228.838.133.35.226.674-.197.862-.41.183-.709.912-1.26.428-.591-.518-.972-.249-1.391.166h0Z" style="fill: #e79722"/>
</svg>